/* XPM */
static char *_d9ac182da3a4c7dff135d28f6672b85[] = {
/* columns rows colors chars-per-pixel */
"64 64 179 2 ",
"   c #7E3B1A",
".  c #7E421E",
"X  c #823F1F",
"o  c #C63C00",
"O  c #964212",
"+  c #9E4A11",
"@  c #954E1E",
"#  c #98481B",
"$  c #93511F",
"%  c #9E521C",
"&  c #A3521A",
"*  c #AC5A1A",
"=  c #B55414",
"-  c #BC5510",
";  c #B45C16",
":  c #BB5B13",
">  c #B05518",
",  c #B35C1A",
"<  c #A8601E",
"1  c #B46016",
"2  c #B66219",
"3  c #834625",
"4  c #854C26",
"5  c #894D27",
"6  c #854B2C",
"7  c #884F2B",
"8  c #89512B",
"9  c #9C5523",
"0  c #9D5C22",
"q  c #A55C24",
"w  c #AD6323",
"e  c #C74400",
"r  c #C94500",
"t  c #CC4C00",
"y  c #CE5200",
"u  c #CB5A0F",
"i  c #D15700",
"p  c #D25901",
"a  c #D45D0A",
"s  c #C55D13",
"d  c #C85F12",
"f  c #D25E14",
"g  c #D76207",
"h  c #D5630D",
"j  c #D86409",
"k  c #DB6B0C",
"l  c #DF700E",
"z  c #C26114",
"x  c #CA6E17",
"c  c #C5631A",
"v  c #C8661A",
"b  c #CD6A1A",
"n  c #D36413",
"m  c #D56C10",
"M  c #DC6C12",
"N  c #D16D1A",
"B  c #DA6C1B",
"V  c #CD7016",
"C  c #D77016",
"Z  c #DE7113",
"A  c #DB731C",
"S  c #E16506",
"D  c #E36C0B",
"F  c #EB6E0B",
"G  c #F26E03",
"H  c #E4740E",
"J  c #E67B0F",
"K  c #FD7404",
"L  c #FE7C04",
"P  c #F4740B",
"I  c #FA7509",
"U  c #F3780E",
"Y  c #FC7D0C",
"T  c #E46F12",
"R  c #E27514",
"E  c #EC7614",
"W  c #E47A16",
"Q  c #EA7D14",
"!  c #E57D19",
"~  c #E97E18",
"^  c #DC7423",
"/  c #DF7826",
"(  c #DE7928",
")  c #E37D23",
"_  c #E17D2C",
"`  c #FF8405",
"'  c #FF8E07",
"]  c #FF840C",
"[  c #F18C0F",
"{  c #FF8B0D",
"}  c #FF930C",
"|  c #FF9A0F",
" . c #E78016",
".. c #EA8215",
"X. c #EF8913",
"o. c #E78119",
"O. c #EA841A",
"+. c #ED8B1C",
"@. c #FE8313",
"#. c #F18E14",
"$. c #FF8B12",
"%. c #F1871A",
"&. c #F18E1C",
"*. c #EF901E",
"=. c #F39116",
"-. c #FE9413",
";. c #FF9B13",
":. c #F2921D",
">. c #FD961A",
",. c #F79A1D",
"<. c #FE9B1B",
"1. c #FFA014",
"2. c #FFA31B",
"3. c #FFAB1D",
"4. c #E58123",
"5. c #EC8D21",
"6. c #E4832B",
"7. c #E98A2B",
"8. c #EF9120",
"9. c #ED922D",
"0. c #F29521",
"q. c #F69C24",
"w. c #F99F24",
"e. c #F49B2A",
"r. c #E38432",
"t. c #E58835",
"y. c #E58B3B",
"u. c #ED9234",
"i. c #E7903F",
"p. c #E9933E",
"a. c #F49D32",
"s. c #F7A027",
"d. c #FAA225",
"f. c #FFAC23",
"g. c #F6A329",
"h. c #FAA429",
"j. c #FEAB2A",
"k. c #FFB224",
"l. c #FFB129",
"z. c #F4A036",
"x. c #F9A534",
"c. c #FAA935",
"v. c #F5A23A",
"b. c #FCAF3C",
"n. c #E79244",
"m. c #EA9642",
"M. c #EC9A44",
"N. c #EC9C4A",
"B. c #EB9F53",
"V. c #EFA34B",
"C. c #F5A642",
"Z. c #F6A946",
"A. c #FAAE42",
"S. c #F0A34A",
"D. c #F4AA4D",
"F. c #FBB043",
"G. c #FAB24B",
"H. c #EEA251",
"J. c #F0A755",
"K. c #F5AE52",
"L. c #F1AC5B",
"P. c #F6B156",
"I. c #F9B452",
"U. c #FAB857",
"Y. c #F6B35C",
"T. c #F9B75B",
"R. c #FBBB5C",
"E. c #F6B560",
"W. c #F7B862",
"Q. c #FABD62",
"!. c #F8BB68",
"~. c #FFC15E",
"^. c #FDC265",
"/. c #FFC867",
"(. c #FDC46C",
"). c #FFC86F",
"_. c #FFC970",
"`. c #FFD97B",
"'. c None",
/* pixels */
"'.'.'.'.'.'.'.'.'.'.'.'.'.'.'.'.'.'.'.'.'.'.'.'.'.'.'.'.'.'.'.'.'.'.'.'.'.'.'.'.'.'.'.'.'.'.'.'.'.'.'.'.'.'.'.'.'.'.'.'.'.'.'.'.",
"'.'.'.'.'.'.'.'.'.'.'.'.'.'.'.'.'.'.'.'.'.'.'.'.'.'.'.7 < v N A C A b c 0 6 '.'.'.'.'.'.'.'.'.'.'.'.'.'.'.'.'.'.'.'.'.'.'.'.'.'.",
"'.'.'.'.'.'.'.'.'.'.'.'.'.'.'.'.'.'.'.'.'.'.'.q b =.$.{ 2.-.<.d.<.l.-.-.1.{ -.~ c 9 '.'.'.'.'.'.'.'.'.'.'.'.'.'.'.'.'.'.'.'.'.'.",
"'.'.'.'.'.'.'.'.'.'.'.'.'.'.'.'.'.'.'.'.8 n ] 3.>.,.0.+.q.:.&.0.*.q.O.+.0.*.x.>.<.1.Y v '.'.'.'.'.'.'.'.'.'.'.'.'.'.'.'.'.'.'.'.",
"'.'.'.'.'.'.'.'.'.'.'.'.'.'.'.'.'.'.9 U ;.2.*.q.+.O.q.&.0.8.8.8.+.w.+.8.*.O.w.*.8.0.:.k.$.D '.'.'.'.'.'.'.'.'.'.'.'.'.'.'.'.'.'.",
"'.'.'.'.'.'.'.'.'.'.'.'.'.'.'.'.'.F 1.<.+.s.+.&.0.+.q.*.0.8.0.w.0.s.&.q.+.+.0.O.q.+.*.0.+.f.} n '.'.'.'.'.'.'.'.'.'.'.'.'.'.'.'.",
"'.'.'.'.'.'.'.'.'.'.'.'.'.'.'.d 1.<.8.q.O.8.*.O.d.&.q.+.+.+.W o.W O.W 5.O.0.:.:.q.O.0.+.O.s.8.<.-.& '.'.'.'.'.'.'.'.'.'.'.'.'.'.",
"'.'.'.'.'.'.'.'.'.'.'.'.'.'.I ;.s.8.+.0.+.+.h.X.O.~ R o.O.O.~ ! ! W ~ +.o.o.Z O.+.:.h.+.0.:.O.q.w.} M '.'.'.'.'.'.'.'.'.'.'.'.'.",
"'.'.'.'.'.'.'.'.'.'.'.'.X ` k.5.O.d.O.O.d.+.! 4.! J 5.0.q.q.s.d.w.q.d.q.q.8.+.O.R ! o.*.h.O.8.w. .0.3.K '.'.'.'.'.'.'.'.'.'.'.'.",
"'.'.'.'.'.'.'.'.'.'.'.@ | :.*.s...+.d.&...W y.L.U.s.:.0.:.0.0.0.0.0.0.0.:.0.0.s.q.+.R ! ! :.s.O.*.s.+.<.{ '.'.'.'.'.'.'.'.'.'.'.",
"'.'.'.'.'.'.'.'.'.'.# ' j.0.~ :.q.+.+.! R =.b.Q.Y.P.,.#.0.0.0.:.0.0.0.0.0.0.0.0.0.q.d.5.R W 5.+.q.*.O.e.f.L '.'.'.'.'.'.'.'.'.'.",
"'.'.'.'.'.'.'.'.'.3 ;.q.O.q.0.O.w.W ( J.G.=.[ e.Y.E.P.0.&.0.0.0.0.0.0.0.0.0.0.0.0.0.8.q.w.+.M *.q.o.w.:.~ w.{ '.'.'.'.'.'.'.'.'.",
"'.'.'.'.'.'.'.'.'.L d.q.+.O.d.:.k n.Q.R.E.C.=.[ a.Y.E.P.:.=.0.0.0.0.0.0.0.0.0.0.0.0.0.0.8.d.:.R R q.q.! 8.s.2.G '.'.'.'.'.'.'.'.",
"'.'.'.'.'.'.'.'.] f...+.q.5.+.!  .G.W.K.K.E.C.=.#.e.Y.E.P.0.&.0.0.8.0.0.0.0.0.0.0.0.0.0.0.:.q.q.W o.+.:.d.O.O.3.h '.'.'.'.'.'.'.",
"'.'.'.'.'.'.'.z ;.e.q.O.*.d.T o.d.=.C.E.K.K.Y.C.=.=.x.Q.(.^.x.w.h.h.h.d.d.g.d.q.q.0.8.0.0.0.0.q.d.Z O.d.O.O.q.e.} O '.'.'.'.'.'.",
"'.'.'.'.'.'.5 ;.8...:.s.+.k +.s.8.:.#.C.E.K.K.W.A.+.X.9.m.p.6.T R R R R W W  .*.8.d.h.q.8.0.0.0.0.s.W R 0.s.:.~ d.} '.'.'.'.'.'.",
"'.'.'.'.'.'.P d.s.*.o.:.O.4.,.0.0.0.:.=.Z.Y.T.V.f i y t t r t t t t r t r t t i i M W 0.h.0.0.0.0.0.q.R 5.:.O.0.s.2.u '.'.'.'.'.",
"'.'.'.'.'.9 | +.+.q.s.J _ (.a.#.0.0.0.:.=.C.(.m.e y i i i p p p i i i p p i i i y t r i o.d.q.8.0.0.q.0.M 5.s.0.O.8.} '.'.'.'.'.",
"'.'.'.'.'.I f.q.X.O.&.) L.T.Y.a.#.0.0.0.:.=.I.H.t i i i i i i i i i i i i i i i i p p y e M h.q.0.0.8.d.O.W 0.O.+.d.f.h '.'.'.'.",
"'.'.'.'.9 } O.+.s.d.D i.^.D.P.Y.a.#.0.0.0.:.,.u.y i i i i i i i i i p i i i i i i i i p i e R s.0.0.0.8.w.R O.s.q.O.*.{ '.'.'.'.",
"'.'.'.'.Q l.+.O.+.X.4.Y.P.K.K.P.Y.a.=.:.0.0.q.X.i i i i i i i i y t t e t i i i i i p i i i t *.w.0.0.0.q.5.o.0.+.O.0.f.; '.'.'.",
"'.'.'.'.{ &.0.s.q.H m.Q.K.K.K.K.P.E.e.#.0.0.q.O.t i i i i i i i p k ^ ^ B t t i i i i i i p e k s.0.0.0.0.q.R ! q.q.:.0.Y '.'.'.",
"'.'.'.w 2.O.*.O.&.7.L.K.K.K.D.P.^./.(.F.d.d.l.8.t i i i i i i t  .f.G.(.Q.S.j r p i i i i i t j w.0.0.0.0.w.O.W :.+.*.*.<.. '.'.",
"'.'.'.T w.q.w.0.H ! ^.P.K.K.U.S.r.r.t.t.W R ! Z i i i i i i i t 7.q.#.a.Y.(.I.a y p i i i i y g q.0.0.0.0.0.q.W O.0.s.0.2.z '.'.",
"'.'.'.{ &.O.+.q.O...s.Y.P.K.R.p.o e e e t t r t i i i i i i i t m.G.=.#.z.Y./.( r i i i p i t j q.0.0.0.0.8.q.+.+.:.+.O.<.E '.'.",
"'.'.4 1.d.0.+.+.R 8.#.e.Y.Y.R.M.t i i i i i i i i i i i i i i t p.(.v.=.#.z.(.A r i i i i p t k d.0.0.0.0.0.q.O.R :.*.0.h.<.'.'.",
"'.'., -.*.+.0.8.O.q.8.#.e.L.^.p.t y i i i y y i i i p i i i i t p.^.W.v.:.f.9.y i i i i i p t ! s.0.0.0.0.0.0.&.O.s.5.*.*.$.'.'.",
"'.'.N <.*.O.&.R ! d.0.0.#.e.^.N.t y i y y y i i i i i i i i i t m.^.Y.W.a.R t t p i i i p e j s.0.0.0.0.0.0.0.q.R o.%.+.8.;.@ '.",
"'.'.C f.0.q.h.O.O.q.0.0.0.#.e.Y.H.M.S.S.S.S.K.i.i i i i i i i i h n h h a r y p i p p y o a s.q.0.0.0.0.0.0.0.q.W *.s.q.0.2.& '.",
"'.'.T =.O.O.+.~ *.0.0.0.0.0.#.e.Q.Q.T.T.U.U./.S.t i i i i i i p y y t t i i i i i p i a ( q.,.8.0.0.0.0.0.0.0.d.O...+.O.O.>.1 '.",
"'.'.%.j.q.0.q.+.+.q.0.0.0.0.0.=.e.Y.P.K.K.K.T.M.t i i i i i i i i i i i i i i p i y t n.`.~.#.=.0.0.0.0.0.0.0.e.O.o.q.0.0.f.V '.",
"'.'.Q :.O.+.+...5.0.0.0.0.0.0.0.=.e.E.P.K.K.T.M.t i i i i i p i i i p i i i i i i i p i B J.~.:.:.0.0.0.0.0.0.q.O.W *.+.+.>.m '.",
"'.'.U :.*.*.:.O.8.0.0.0.0.0.0.0.q.=.a.T.Y.P.^.N.t i i i i i i i i i p i p i i i i i i i r o N.Q.=.&.0.0.0.0.0.q.O.o.0.*.+.>.m '.",
"'.'.%.f.8.8.0.O.*.0.0.0.0.0.0.0.0.0.=.a.Y.P.R.M.y i i i p i i p i t t t t t i i i i i i i i o N.R.=.=.0.0.0.0.w.O.! 0.:.0.f.x '.",
"'.'.Z ,.*.O.+.W *.q.0.0.0.0.q.+.p a p p a a h a i i i p i i i t H 5.O.~ ! k t t i i i i i i t i !.I.=.:.0.0.8.w.O.W +.+.*.-., '.",
"'.'.C f.q.q.d.o.! q.0.0.0.0.s.O.t y i t i t t y i i i i i i i t O.f.s.s.h.s.5.p y i i i i i i r t._.D.=.:.0.0.q.! +.w.q.q.2.& '.",
"'.'.N <.O.+.*.T ! d.:.0.0.0.w.O.t i i i i i i i i i i i i i i t m.c.&.0.8.0.j.O.t i i i i i i r B Q.E.Z.#.:.8.q.W ~ +.+.*.-.$ '.",
"'.'.* -.+.:.q.8.o.q.0.0.0.0.w.O.e t y t y t t y p i i i i i i t m.^.q.=.0.0.q.8.i i i i i i i y p C.W.T.Z.&.,.+.O.h.0.5.+.} '.'.",
"'.'.'.;.q.*.+.+.W 8.0.0.0.0.w.+.p j j j j j j j i i i i i i i t i.^.Y.0.#.0.q.8.i i i i i i i y p =.C.W.T.Z.,.! R &.:.:.h.>.'.'.",
"'.'.'.] &.+.*.q.O.O.q.0.0.0.8.0.w.q.q.q.q.q.g.+.y i i i i i i r p.R.Y.Y.0.#.j.O.t i i i i i i y g =.=.v.E.E.G.O.&.8.5.O.>.R '.'.",
"'.'.'.Z f.s.0.8.~ W q.0.0.0.0.0.0.0.0.0.0.q.s.%.y i i i i i i t M./.I.Q.Q.b.:.p i i i i i i i r ^ A.#.#.C.Y.Q.6.X.+.q.w.2.; '.'.",
"'.'.'.q ;.O.O.+.w.O.5.0.0.0.0.0.0.0.0.0.0.0.e.+.y i i i i i i t y.T.J.S.H.r.y t i i i i i i p r p._.e.#.#.G.B.! q.O.+.5.-.'.'.'.",
"'.'.'.'.] 0.q.s.8.W O.d.0.0.0.0.0.0.0.0.0.0.w.O.y i i i i i i i y a p i t e i i i i i i i i t h T.Y.Y.e.[ q.) W :.d.0.,.P '.'.'.",
"'.'.'.'.E f.+.O.O.8.W 8.q.8.0.0.0.0.0.0.0.0.s.O.y i i i i i i i i y y y i i i i i i i i i i o M./.D.P.Y.x...Q w.O.O.8.3.* '.'.'.",
"'.'.'.'.4 } *.&.s.q.R W w.0.0.0.0.0.0.0.0.0.s.O.y i p i i i i i i i p i i i i i i i i p y t Q h.K.Y.K.I.Q.) W q.q.*.0.] '.'.'.'.",
"'.'.'.'.'.P l.0.O.O.q.! +.q.0.0.0.0.0.0.0.0.s.O.t i i i p i i p i i i i i i i i p p t e y O.h.&.&.K.Y.Q.n.o.:.O.+.q.k.s '.'.'.'.",
"'.'.'.'.'.5 } 5.+.w.q.~ R 0.q.0.0.0.0.0.0.0.s.O.t y i p i i p p i i i p i i t t r t f W &.h.0.0.#.&.R.L.R X.q.q.O.:.{ '.'.'.'.'.",
"'.'.'.'.'.'.F f.q.+.~ q.5.R w.0.0.0.0.0.0.0.q.5.a i y y t t t t t t t t t i a B _ M.W.Q.q.#.0.0.0.,.e./ &.8.O.:.g.2.= '.'.'.'.'.",
"'.'.'.'.'.'.'.{ :.O.q.q.+.W O.w.0.0.0.0.0.0.0.q.q.8.+.O.O.O.o.o. ...7.N.N.V.K.Q.^.R.P.Y.P.0.=.0.q.q.T W *.w.0.O.<.@.'.'.'.'.'.'.",
"'.'.'.'.'.'.'.= ;.g.8.O.+.d.R W s.0.0.0.0.0.0.0.0.q.q.s.q.d.d.s.s.s.,.A.(.R.P.K.K.K.K.K.Y.Y.:.:.q.Z o.f.O.O.q.g.}   '.'.'.'.'.'.",
"'.'.'.'.'.'.'.'.U 2.o.8.w.+.5.~ W q.q.8.0.0.0.0.0.0.0.0.0.0.0.0.:.0.0.#.z.E.P.K.P.K.K.K.K.P.R.e.l +.+.+.e.+.+.2.: '.'.'.'.'.'.'.",
"'.'.'.'.'.'.'.'.'.L f.q.O.O.s.0.R W 0.d.8.0.0.0.0.0.0.0.0.0.0.0.0.0.0.:.#.v.E.K.K.K.K.K.K.R.L.6.H q.q.O.*.s.2.S '.'.'.'.'.'.'.'.",
"'.'.'.'.'.'.'.'.'.'.} <.O.s.5.O.h.+.M O.w.q.8.8.0.0.0.0.0.0.0.0.0.0.:.0.0.=.v.E.P.K.K.R.Q.m.M %.q.~ q.q.o.2.] '.'.'.'.'.'.'.'.'.",
"'.'.'.'.'.'.'.'.'.'.'.` l.8.O.0.8.+.0.! R +.d.q.0.0.0.0.0.0.0.0.0.0.0.0.0.:.#.z.Y.R.R.N._ E =.+.q.8.O.e.f.K '.'.'.'.'.'.'.'.'.'.",
"'.'.'.'.'.'.'.'.'.'.'.'.{ >.8.w.O.:.q.&.5.R Z 5.0.w.w.0.0.8.0.0.0.0.0.0.0.q.d.=.v.H._ W #.+.s.+.+.s.8.;.Y '.'.'.'.'.'.'.'.'.'.'.",
"'.'.'.'.'.'.'.'.'.'.'.'.'.L k.5.O.d.O.+.s.&.+.W ~ O.! 5.q.q.w.q.w.q.q.q.0.O.o.O.H R X.&.s.O.&.q.~ 0.3.D '.'.'.'.'.'.'.'.'.'.'.'.",
"'.'.'.'.'.'.'.'.'.'.'.'.'.'.S ;.j.*.O.s.+.O.d.&.0.O.W ! W W ! o.O.! ! ! W o.R O.&.&.s.O.8.0.o.e.f.} : '.'.'.'.'.'.'.'.'.'.'.'.'.",
"'.'.'.'.'.'.'.'.'.'.'.'.'.'.'.+ -.<.0.q.+.0.*.O.s.O.w.8.*.O.O.O.! *.! *.+.q.q.+.w.O.0.*.+.s.0.;.@.. '.'.'.'.'.'.'.'.'.'.'.'.'.'.",
"'.'.'.'.'.'.'.'.'.'.'.'.'.'.'.'.'.h 1.<.*.s.+.*.8.+.w.&.8.8.0.q.:.d.*.0.+.O.0.O.q.*.*.q.8.2.} - '.'.'.'.'.'.'.'.'.'.'.'.'.'.'.'.",
"'.'.'.'.'.'.'.'.'.'.'.'.'.'.'.'.'.'.'.M } 2.:.s.&.O.q.&.0.8.:.0.+.q.+.*.*.+.w.&.0.0.,.f.{ : '.'.'.'.'.'.'.'.'.'.'.'.'.'.'.'.'.'.",
"'.'.'.'.'.'.'.'.'.'.'.'.'.'.'.'.'.'.'.'.'.s @.2.-.d.w.%.q.8.:.8.*.q.O.*.0.:.j.<.-.<.U > '.'.'.'.'.'.'.'.'.'.'.'.'.'.'.'.'.'.'.'.",
"'.'.'.'.'.'.'.'.'.'.'.'.'.'.'.'.'.'.'.'.'.'.'.'., E @.$.3.-.<.2.<.f.-.-.2.{ @.Z & '.'.'.'.'.'.'.'.'.'.'.'.'.'.'.'.'.'.'.'.'.'.'.",
"'.'.'.'.'.'.'.'.'.'.'.'.'.'.'.'.'.'.'.'.'.'.'.'.'.'.'.'.$ & , 2 2 2 * % $ '.'.'.'.'.'.'.'.'.'.'.'.'.'.'.'.'.'.'.'.'.'.'.'.'.'.'.",
"'.'.'.'.'.'.'.'.'.'.'.'.'.'.'.'.'.'.'.'.'.'.'.'.'.'.'.'.'.'.'.'.'.'.'.'.'.'.'.'.'.'.'.'.'.'.'.'.'.'.'.'.'.'.'.'.'.'.'.'.'.'.'.'."
};
