/* XPM */
static char *_b016eaa901a4b84e87e7241e077b9e6[] = {
/* columns rows colors chars-per-pixel */
"32 32 124 2 ",
"   c #C43D00",
".  c #9C5A1D",
"X  c #B3641B",
"o  c #B6691C",
"O  c #BC6A1C",
"+  c #8C5722",
"@  c #83592E",
"#  c #8B5C2C",
"$  c #925C23",
"%  c #9E6128",
"&  c #AB6622",
"*  c #A96826",
"=  c #B26B22",
"-  c #BD6C21",
";  c #C74300",
":  c #C94500",
">  c #CB4C00",
",  c #CF5200",
"<  c #CF580A",
"1  c #D05500",
"2  c #D25901",
"3  c #D05708",
"4  c #D15A0A",
"5  c #D25D14",
"6  c #D66007",
"7  c #DD6A06",
"8  c #D4610D",
"9  c #D8650A",
"0  c #DC6B0B",
"q  c #D56317",
"w  c #D86611",
"e  c #D96A15",
"r  c #DA6D18",
"t  c #C5711E",
"y  c #CB741E",
"u  c #DF7B17",
"i  c #D37519",
"p  c #DC711B",
"a  c #D37A1D",
"s  c #DA7B1A",
"d  c #E1720C",
"f  c #E97D0B",
"g  c #E17512",
"h  c #E67C15",
"j  c #E47B18",
"k  c #DD7722",
"l  c #DF7C25",
"z  c #E27F24",
"x  c #FF910F",
"c  c #FF990F",
"v  c #E68016",
"b  c #EB8415",
"n  c #ED8915",
"m  c #E48119",
"M  c #EA851A",
"N  c #ED8B1C",
"B  c #F28516",
"V  c #F18E14",
"C  c #FD8C14",
"Z  c #F28619",
"A  c #F18D1A",
"S  c #EF901F",
"D  c #F29117",
"F  c #FF9413",
"G  c #FF9B14",
"H  c #F2931C",
"J  c #FF9618",
"K  c #F6991B",
"L  c #FE9D1D",
"P  c #FFA215",
"I  c #FFA817",
"U  c #FFA31A",
"Y  c #FFA81A",
"T  c #EC8C21",
"R  c #E98C2B",
"E  c #EF9120",
"W  c #F29521",
"Q  c #F99720",
"!  c #F59A23",
"~  c #FA9D22",
"^  c #F59D2B",
"/  c #E78D36",
"(  c #E68E3D",
")  c #EC9230",
"_  c #EB953C",
"`  c #EF9B3B",
"'  c #F39E36",
"]  c #F29E3B",
"[  c #F7A026",
"{  c #FBA124",
"}  c #FDA827",
"|  c #F6A12F",
" . c #FAA429",
".. c #FCAA30",
"X. c #F4A33C",
"o. c #F8A738",
"O. c #F6A93F",
"+. c #ED9C42",
"@. c #EA9A48",
"#. c #EFA249",
"$. c #F1A040",
"%. c #F6A944",
"&. c #F9AE45",
"*. c #F0A24A",
"=. c #F5AC4D",
"-. c #F9B14E",
";. c #EFA450",
":. c #F0A552",
">. c #F3AB53",
",. c #F2AE5B",
"<. c #F6B256",
"1. c #F8B556",
"2. c #F6B55C",
"3. c #FBBB5D",
"4. c #F4B360",
"5. c #F5B866",
"6. c #F9BC64",
"7. c #F5B969",
"8. c #F9BE68",
"9. c #FFC85C",
"0. c #FCC36B",
"q. c #FFC869",
"w. c #FFCE75",
"e. c None",
/* pixels */
"e.e.e.e.e.e.e.e.e.e.e.e.e.e.e.@ # e.e.e.e.e.e.e.e.e.e.e.e.e.e.e.",
"e.e.e.e.e.e.e.e.e.e.e.= M J F F G G F Z y e.e.e.e.e.e.e.e.e.e.e.",
"e.e.e.e.e.e.e.e.e.y F P L W H S E H ! ~ G G b # e.e.e.e.e.e.e.e.",
"e.e.e.e.e.e.e.& c U ! n b M M M M M M N S E L P m e.e.e.e.e.e.e.",
"e.e.e.e.e.e.i P ! n b _ R n E W E E A T M M S E U x e.e.e.e.e.e.",
"e.e.e.e.e.j P W M R N X.0.^ D W ! W W ! W E M M E U F e.e.e.e.e.",
"e.e.e.e.y I W b R 7.-.n o.6.| H ! ! ! ! ! ! W M M E L x e.e.e.e.",
"e.e.e.e.G H b v ! %.5.-.A X.>.A N S A E ! [ ! ! M M E U i e.e.e.",
"e.e.e.C L M R ! H D &.4.8 , 4 4 , , 2 , 4 g ! ! ! M M W P e.e.e.",
"e.e.% P N M ,.-.N V ! ` > , , , , > , , , > 8 ! ! W M N ~ B e.e.",
"e.e.B L M +.3.2.-.! K S 2 , 2 2 2 8 , > 2 2 ; 0 [ ! E M W G e.e.",
"e.e.c H T ,.<.=.,.$.H M 2 , , , b %.>.w , , , 2 W ! W M E Y O e.",
"e.* P N b %.6.*., 3 , , 2 2 , , ] K 9.*.: , , 2 E ! ! N M ~ Z e.",
"e.a { M A D &.;.: : : > 2 2 , , ,.9.W p , 2 ; 0 [ W W E M W J e.",
"e.m L M S H H ] @._ +./ , , 2 , e z 4 > 2 , 9 H ! W W W N S G e.",
"e.Z K M S W H H -.0.q.<., , 2 2 > : , , > q -...A W W W M E G e.",
"e.A ! M S W W H H &.0.<., , 2 , > > > , 2 2 5 $. .A W W N H G e.",
"e.Z ~ N S ! ! E 7 7 k p 2 2 , 1 d b g , , 2 : 4 =.W H E N E U e.",
"e.u { A S W ^ M       : 2 2 , 1 ' }  .M , , , : ( 6.D A T ! G e.",
"e.- G N N W ! A 0 0 0 0 2 , , , :.&.K ! 2 , , > 7 9.<.A B ! C e.",
"e.# G S M H E ! ^ [  .W 1 , , , >.w.&.d > , , > j ! 2.+.b L s e.",
"e.e.F ! M N ! E W W ! S 1 1 1 1 r l r , 2 2 > < 2.o.W R M U $ e.",
"e.e.y U S M W W W W ! S 1 1 , 2 > : > , , : > T 3.0.) f ~ F e.e.",
"e.e.e.c ! M M ! W W ! S > > > > > > : > 4 w n K ! >.R S Y X e.e.",
"e.e.e.- U E M N ! ! W S M j g g 0 R ( ( >.3.o.D E j N { C e.e.e.",
"e.e.e.e.x L N M M ! ! W ~ [ [ [ ~  .3.0.<.<.6.] h N H I e.e.e.e.",
"e.e.e.e.e.c ~ A M M W ! ! W W W W H H =.3.2.:.R n W I X e.e.e.e.",
"e.e.e.e.e.e.F ~ W M M M S W ! ! ! ! H H *._ M b ! I X e.e.e.e.e.",
"e.e.e.e.e.e.e.C U ! H M M M N N M N M M M n H U P . e.e.e.e.e.e.",
"e.e.e.e.e.e.e.e.o G U ~ W N M M M N S H H L P m e.e.e.e.e.e.e.e.",
"e.e.e.e.e.e.e.e.e.e.O C U U L L U { U G F s e.e.e.e.e.e.e.e.e.e.",
"e.e.e.e.e.e.e.e.e.e.e.e.e.& t a a y = + e.e.e.e.e.e.e.e.e.e.e.e."
};
