/* XPM */
static char *_ddd1a4d7ca4466686381bec395acfdc[] = {
/* columns rows colors chars-per-pixel */
"16 16 182 2 ",
"   c #7C5629",
".  c #8E6125",
"X  c #976426",
"o  c #986023",
"O  c #98672E",
"+  c #986A2D",
"@  c #9C692D",
"#  c #A16925",
"$  c #A16D2C",
"%  c #B67122",
"&  c #B27026",
"*  c #B97322",
"=  c #B87627",
"-  c #BA7627",
";  c #C64000",
":  c #C64200",
">  c #C84400",
",  c #C94400",
"<  c #C84600",
"1  c #C94700",
"2  c #CA4800",
"3  c #CB4900",
"4  c #CB4B00",
"5  c #CB4D02",
"6  c #CC4C00",
"7  c #CD4D00",
"8  c #CE5000",
"9  c #CF5100",
"0  c #CF5200",
"q  c #CE5300",
"w  c #CF5301",
"e  c #CE5204",
"r  c #CE5408",
"t  c #D05300",
"y  c #D15300",
"u  c #D05500",
"i  c #D15600",
"p  c #D25700",
"a  c #D05606",
"s  c #D15707",
"d  c #D35800",
"f  c #D35A01",
"g  c #D15802",
"h  c #D15803",
"j  c #D75E00",
"k  c #D15805",
"l  c #D15905",
"z  c #D15C0B",
"x  c #D15E11",
"c  c #D66007",
"v  c #D5610C",
"b  c #C47A1E",
"n  c #C87B1F",
"m  c #DE771F",
"M  c #DF781F",
"N  c #D87D1C",
"B  c #E27B19",
"V  c #E27B1B",
"C  c #C17820",
"Z  c #C97A24",
"A  c #D7841F",
"S  c #EB820F",
"D  c #FD8A0E",
"F  c #FF9207",
"G  c #FF970E",
"H  c #FF9A0F",
"J  c #E98215",
"K  c #E98316",
"L  c #EE8617",
"P  c #EF8D17",
"I  c #E0841D",
"U  c #E3851D",
"Y  c #E9841B",
"T  c #EC8B19",
"R  c #EF8C19",
"E  c #EC8B1C",
"W  c #EE8D1D",
"Q  c #EE8E1F",
"!  c #F38A13",
"~  c #FC9113",
"^  c #FF9313",
"/  c #FF9411",
"(  c #FB9015",
")  c #FF9316",
"_  c #FF9B13",
"`  c #FF9E11",
"'  c #FF9D13",
"]  c #FF9F12",
"[  c #FF9914",
"{  c #FF9A14",
"}  c #FF9B14",
"|  c #FE9B15",
" . c #FF9816",
".. c #FF9A16",
"X. c #FF9B16",
"o. c #FF9A17",
"O. c #FF9C14",
"+. c #FF9C15",
"@. c #FF9E14",
"#. c #FF9C16",
"$. c #FF9F17",
"%. c #F19018",
"&. c #F0911F",
"*. c #F5901D",
"=. c #F3961E",
"-. c #F6941E",
";. c #FB9319",
":. c #FB941A",
">. c #F8951E",
",. c #FF981A",
"<. c #FF9C19",
"1. c #FF9C1A",
"2. c #FF9D1A",
"3. c #FFA310",
"4. c #FFA016",
"5. c #FFA617",
"6. c #FFA218",
"7. c #FFA21B",
"8. c #ED8F20",
"9. c #E98A26",
"0. c #EE9121",
"q. c #ED9229",
"w. c #F09120",
"e. c #F19120",
"r. c #F09220",
"t. c #F19320",
"y. c #F09321",
"u. c #F39220",
"i. c #F29621",
"p. c #F09422",
"a. c #F19622",
"s. c #F29622",
"d. c #F39722",
"f. c #F19724",
"g. c #F39823",
"h. c #F49822",
"j. c #F49823",
"k. c #F79C20",
"l. c #F29824",
"z. c #F49A24",
"x. c #F59A24",
"c. c #F69E24",
"v. c #F79E25",
"b. c #F79D26",
"n. c #F89F22",
"m. c #FF9C23",
"M. c #F39B2D",
"N. c #F3982F",
"B. c #E68E3B",
"V. c #EB9233",
"C. c #E8913A",
"Z. c #EE9A39",
"A. c #EE9C3C",
"S. c #F09930",
"D. c #F29E35",
"F. c #FE9F31",
"G. c #F19E38",
"H. c #F29F38",
"J. c #FAA225",
"K. c #F8A026",
"L. c #F8A229",
"P. c #F5A032",
"I. c #F4A33B",
"U. c #F7A638",
"Y. c #F6A63A",
"T. c #F5A23D",
"R. c #FAA139",
"E. c #EE9E47",
"W. c #EFA44E",
"Q. c #F2A241",
"!. c #F4A641",
"~. c #F6A940",
"^. c #F3A94D",
"/. c #F5AB4D",
"(. c #F6AF4E",
"). c #FDB648",
"_. c #FDB64D",
"`. c #F2AC54",
"'. c #F6B053",
"]. c #F8BB64",
"[. c #F6BC6C",
"{. c None",
/* pixels */
"{.{.{.{.{.{.+ = = $ {.{.{.{.{.{.",
"{.{.{.{.b ^ H ........A {.{.{.{.",
"{.{.{.^ 6.S.G.=.h.i.r..._ {.{.{.",
"{.{.( F A.'.!.S.R r.v.l.;.' {.{.",
"{.& 6.Z.J.I.v a 2 2 c W l.<.N {.",
"{.D R.[.D.S 9 6 V m : p z.r...{.",
"{.G M.^.x 9 9 l _.G.< p l.i.#.X ",
"O #.P i./.W.g w z 6 r q.n.r.2.% ",
"+ ..i.%.9.B.l w j g e m D.%.2.* ",
"{...i.r.p p 9 l ).L.t : V.U.#.# ",
"{.) *.i.v.r.t 9 C.V < 6 Q.T.' {.",
"{.Z #.8.v.r.p 2 < 2 s J (.m.L {.",
"{.{...;.8.j.E J Y E.].Y.! 5.{.{.",
"{.{.{.3.<.W z.v.k.Y.`.F.3.o {.{.",
"{.{.{.{.T 4.2.-.-...' ^   {.{.{.",
"{.{.{.{.{.{.b I U Z . {.{.{.{.{."
};
